<svg viewBox="0 0 30 53" fill="none" xmlns="http://www.w3.org/2000/svg">
    <g opacity="0.2">
        <path d="M7.68646 12.0597H11.4364L11.4198 29.1671L7.68646 29.167V20.6133V12.0597Z" fill="#6F6E6E"/>
        <path d="M9.39099 38.9879C10.7123 40.2306 13.1741 40.8887 15.5395 40.8887C17.9049 40.8887 20.0176 40.2306 21.3227 38.9879C22.644 37.7299 23.3681 35.6551 23.3681 33.3232V2.55542H19.6182V33.2081C19.6182 36.3685 18.4269 37.4039 15.5395 37.4039C12.6358 37.4039 11.4198 36.3685 11.4198 33.2081L11.4364 28.8502V24.2334H7.68646V28.5334V33.2081C7.68646 35.54 8.06963 37.7299 9.39099 38.9879Z" fill="#6F6E6E"/>
        <path d="M9.2792 33.864C8.00709 33.864 6.77488 33.6598 5.58259 33.2515C4.406 32.8432 3.47326 32.3018 2.78436 31.6272L3.85294 28.9378C4.52636 29.5413 5.3493 30.0384 6.32178 30.4289C7.31003 30.8017 8.29886 30.9881 9.28828 30.9881C10.5133 30.9881 11.4249 30.7662 12.0231 30.3224C12.637 29.8786 12.9451 29.2928 12.9474 28.565C12.949 28.0324 12.7777 27.5975 12.4332 27.2602C12.1045 26.9051 11.6814 26.63 11.1637 26.4347C10.6461 26.2394 9.94002 26.0175 9.04562 25.769C7.79028 25.4317 6.77052 25.0944 5.98633 24.7571C5.21784 24.4198 4.55203 23.8961 3.98889 23.1861C3.44151 22.4582 3.16976 21.4818 3.17362 20.257C3.17687 19.2273 3.42324 18.2953 3.91274 17.461C4.41799 16.6089 5.16611 15.9343 6.1571 15.4372C7.16379 14.9402 8.38957 14.6917 9.83444 14.6917C10.8396 14.6917 11.8285 14.8337 12.8013 15.1177C13.7742 15.4017 14.6131 15.81 15.3181 16.3426L14.3438 19.0321C13.6229 18.5527 12.8702 18.1888 12.0857 17.9403C11.3012 17.6918 10.5399 17.5675 9.8018 17.5675C8.59251 17.5675 7.68874 17.7983 7.09049 18.2598C6.50795 18.7214 6.21547 19.3338 6.21306 20.0972C6.21138 20.6297 6.37491 21.0647 6.70365 21.402C7.04809 21.7393 7.47914 22.0055 7.99679 22.2008C8.51444 22.3961 9.22047 22.618 10.1149 22.8665C11.3389 23.1861 12.3429 23.5233 13.1271 23.8784C13.9112 24.2157 14.5771 24.7394 15.1245 25.4495C15.6876 26.1595 15.9673 27.1182 15.9635 28.3253C15.9602 29.3549 15.706 30.2869 15.2008 31.1213C14.7113 31.9556 13.9632 32.6213 12.9565 33.1184C11.9498 33.6154 10.7241 33.864 9.2792 33.864Z" fill="#6F6E6E"/>
        <path d="M11.4364 12.0598H7.68646V20.6134H11.4364V12.0598Z" fill="#6F6E6E"/>
        <path d="M21.5842 -8.75491e-05L18.0358 3.61401H25.1325L21.5842 -8.75491e-05Z" fill="#6F6E6E"/>
        <path d="M1.79239 49.3023C1.22261 49.1379 0.807384 48.9365 0.546714 48.6981C0.288351 48.4574 0.15917 48.1611 0.15917 47.8092C0.15917 47.4111 0.317186 47.0824 0.63322 46.8231C0.951559 46.5615 1.36448 46.4307 1.87198 46.4307C2.218 46.4307 2.52596 46.4979 2.79585 46.6321C3.06806 46.7664 3.27798 46.9516 3.42561 47.1877C3.57556 47.4238 3.65053 47.6819 3.65053 47.962H2.98271C2.98271 47.6564 2.88582 47.4169 2.69205 47.2432C2.49828 47.0673 2.22492 46.9794 1.87198 46.9794C1.54441 46.9794 1.28835 47.0523 1.10381 47.1981C0.921571 47.3416 0.830452 47.5419 0.830452 47.7988C0.830452 48.0048 0.916957 48.1796 1.08997 48.3231C1.26529 48.4643 1.56171 48.5939 1.97924 48.712C2.39908 48.8301 2.72665 48.9608 2.96195 49.1044C3.19955 49.2456 3.37486 49.4111 3.4879 49.6009C3.60324 49.7907 3.66091 50.0141 3.66091 50.271C3.66091 50.6807 3.50174 51.0095 3.1834 51.2571C2.86506 51.5025 2.43945 51.6252 1.90658 51.6252C1.56056 51.6252 1.2376 51.5592 0.937719 51.4273C0.637833 51.293 0.405999 51.1101 0.242215 50.8787C0.0807384 50.6472 0 50.3845 0 50.0905H0.667822C0.667822 50.396 0.779702 50.6379 1.00346 50.8162C1.22953 50.9921 1.53057 51.0801 1.90658 51.0801C2.25721 51.0801 2.52596 51.0083 2.71281 50.8648C2.89966 50.7213 2.99309 50.5257 2.99309 50.278C2.99309 50.0303 2.90658 49.8393 2.73357 49.7051C2.56056 49.5685 2.24683 49.4342 1.79239 49.3023Z" fill="#6F6E6E"/>
        <path d="M5.05538 48.2537C5.33911 47.9041 5.7082 47.7294 6.16265 47.7294C6.95388 47.7294 7.35296 48.1773 7.35988 49.0731V51.5558H6.71974V49.0696C6.71743 48.7988 6.65515 48.5986 6.53289 48.4689C6.41293 48.3393 6.22493 48.2745 5.96887 48.2745C5.76126 48.2745 5.57902 48.3301 5.42216 48.4412C5.2653 48.5523 5.14303 48.6981 5.05538 48.8787V51.5558H4.41524V46.2224H5.05538V48.2537Z" fill="#6F6E6E"/>
        <path d="M10.6298 51.5558C10.5929 51.4817 10.5629 51.3497 10.5398 51.1599C10.2422 51.4701 9.88699 51.6252 9.47407 51.6252C9.10498 51.6252 8.80164 51.521 8.56404 51.3127C8.32874 51.102 8.21109 50.8358 8.21109 50.5141C8.21109 50.1229 8.35873 49.8196 8.654 49.6044C8.95158 49.3868 9.36911 49.278 9.9066 49.278H10.5294V48.9828C10.5294 48.7583 10.4625 48.5801 10.3287 48.4481C10.195 48.3138 9.99772 48.2467 9.73705 48.2467C9.50867 48.2467 9.31721 48.3046 9.16265 48.4203C9.0081 48.5361 8.93082 48.6761 8.93082 48.8405H8.28722C8.28722 48.653 8.35296 48.4724 8.48445 48.2988C8.61825 48.1229 8.79818 47.984 9.02424 47.8821C9.25262 47.7803 9.50291 47.7294 9.77511 47.7294C10.2065 47.7294 10.5444 47.8382 10.789 48.0557C11.0335 48.271 11.1604 48.5685 11.1696 48.9481V50.6773C11.1696 51.0222 11.2134 51.2965 11.3011 51.5002V51.5558H10.6298ZM9.5675 51.0662C9.76819 51.0662 9.9585 51.0141 10.1384 50.9099C10.3184 50.8057 10.4487 50.6703 10.5294 50.5037V49.7328H10.0277C9.24339 49.7328 8.85123 49.9632 8.85123 50.4238C8.85123 50.6252 8.91813 50.7826 9.05193 50.896C9.18572 51.0095 9.35758 51.0662 9.5675 51.0662Z" fill="#6F6E6E"/>
        <path d="M13.9827 48.3752C13.8858 48.359 13.7809 48.3509 13.6679 48.3509C13.248 48.3509 12.9631 48.5303 12.8132 48.8891V51.5558H12.173V47.7988H12.7959L12.8063 48.2328C13.0162 47.8972 13.3138 47.7294 13.699 47.7294C13.8236 47.7294 13.9181 47.7456 13.9827 47.778V48.3752Z" fill="#6F6E6E"/>
        <path d="M16.0589 51.6252C15.5514 51.6252 15.1384 51.4585 14.8201 51.1252C14.5018 50.7895 14.3426 50.3416 14.3426 49.7814V49.6634C14.3426 49.2907 14.413 48.9585 14.5537 48.6669C14.6967 48.3729 14.8951 48.1437 15.1488 47.9794C15.4049 47.8127 15.6817 47.7294 15.9793 47.7294C16.466 47.7294 16.8443 47.8902 17.1142 48.212C17.3841 48.5338 17.5191 48.9944 17.5191 49.5939V49.8613H14.9827C14.992 50.2317 15.0992 50.5314 15.3045 50.7606C15.5121 50.9875 15.7751 51.1009 16.0935 51.1009C16.3195 51.1009 16.511 51.0546 16.6679 50.962C16.8247 50.8694 16.962 50.7467 17.0796 50.5939L17.4706 50.8995C17.1569 51.3833 16.6863 51.6252 16.0589 51.6252ZM15.9793 48.2571C15.7209 48.2571 15.5041 48.352 15.3288 48.5419C15.1534 48.7294 15.045 48.9932 15.0035 49.3335H16.8789V49.2849C16.8605 48.9585 16.7728 48.7062 16.616 48.528C16.4591 48.3474 16.2469 48.2571 15.9793 48.2571Z" fill="#6F6E6E"/>
        <path d="M21.91 46.5V49.9375C21.9077 50.4144 21.7578 50.8044 21.4602 51.1076C21.1649 51.4109 20.7635 51.581 20.256 51.6181L20.0796 51.625C19.5282 51.625 19.0888 51.4757 18.7612 51.1771C18.4336 50.8785 18.2676 50.4676 18.2629 49.9444V46.5H18.9204V49.9236C18.9204 50.2894 19.0207 50.5741 19.2214 50.7778C19.4221 50.9792 19.7082 51.0799 20.0796 51.0799C20.4556 51.0799 20.7428 50.9792 20.9411 50.7778C21.1418 50.5764 21.2422 50.2928 21.2422 49.9271V46.5H21.91Z" fill="#6F6E6E"/>
        <path d="M26.0207 49.7188C26.0207 50.2905 25.8904 50.7512 25.6297 51.1007C25.3691 51.4502 25.0161 51.625 24.5709 51.625C24.1165 51.625 23.7589 51.4803 23.4982 51.191V53H22.8581V47.7986H23.4429L23.474 48.2153C23.7347 47.8912 24.0969 47.7292 24.5605 47.7292C25.0104 47.7292 25.3656 47.8993 25.6263 48.2396C25.8893 48.5799 26.0207 49.0532 26.0207 49.6597V49.7188ZM25.3806 49.6458C25.3806 49.2222 25.2906 48.8877 25.1107 48.6424C24.9308 48.397 24.6839 48.2743 24.3702 48.2743C23.9827 48.2743 23.692 48.4468 23.4982 48.7917V50.5868C23.6897 50.9294 23.9827 51.1007 24.3771 51.1007C24.6839 51.1007 24.9273 50.9792 25.1072 50.7361C25.2895 50.4907 25.3806 50.1273 25.3806 49.6458Z" fill="#6F6E6E"/>
        <path d="M30 49.7188C30 50.2905 29.8697 50.7512 29.609 51.1007C29.3483 51.4502 28.9954 51.625 28.5502 51.625C28.0957 51.625 27.7382 51.4803 27.4775 51.191V53H26.8374V47.7986H27.4221L27.4533 48.2153C27.7139 47.8912 28.0761 47.7292 28.5398 47.7292C28.9896 47.7292 29.3449 47.8993 29.6055 48.2396C29.8685 48.5799 30 49.0532 30 49.6597V49.7188ZM29.3599 49.6458C29.3599 49.2222 29.2699 48.8877 29.09 48.6424C28.91 48.397 28.6632 48.2743 28.3495 48.2743C27.9619 48.2743 27.6713 48.4468 27.4775 48.7917V50.5868C27.669 50.9294 27.9619 51.1007 28.3564 51.1007C28.6632 51.1007 28.9066 50.9792 29.0865 50.7361C29.2687 50.4907 29.3599 50.1273 29.3599 49.6458Z" fill="#6F6E6E"/>
    </g>
</svg>
