<svg xmlns="http://www.w3.org/2000/svg" width="92.035" height="78.979" viewBox="0 0 92.035 78.979">
  <g id="Group_341" data-name="Group 341" transform="translate(-1084 -498.914)">
    <g id="Group_15" data-name="Group 15" transform="translate(1131.715 498.914)">
      <g id="Group_11" data-name="Group 11" transform="translate(0 0)">
        <path id="Path_25" data-name="Path 25" d="M1078.845,502.326h42.334a.994.994,0,0,1,.7.293,1.014,1.014,0,0,1,.291.709V580.3a1.013,1.013,0,0,1-.291.708,1,1,0,0,1-.7.294h-42.334a1,1,0,0,1-.7-.294,1.012,1.012,0,0,1-.291-.708V503.328a1.012,1.012,0,0,1,.291-.709A.993.993,0,0,1,1078.845,502.326Zm41.34,2h-40.347V579.3h40.347Z" transform="translate(-1077.852 -502.326)"/>
        <path id="Path_26" data-name="Path 26" d="M1142.88,542.646h-20.938a3.3,3.3,0,0,1-2.347-.981,3.356,3.356,0,0,1-.972-2.368h0V525.649a3.356,3.356,0,0,1,.972-2.367,3.3,3.3,0,0,1,2.347-.981h20.938a3.3,3.3,0,0,1,2.347.981,3.354,3.354,0,0,1,.972,2.367V539.3a3.361,3.361,0,0,1-.972,2.368A3.3,3.3,0,0,1,1142.88,542.646Zm1.332-17a1.342,1.342,0,0,0-.391-.95,1.317,1.317,0,0,0-.942-.394h-20.938a1.319,1.319,0,0,0-.942.394,1.345,1.345,0,0,0-.39.95V539.3h0a1.343,1.343,0,0,0,.39.951,1.319,1.319,0,0,0,.942.394h20.938a1.319,1.319,0,0,0,.942-.394,1.348,1.348,0,0,0,.391-.951Z" transform="translate(-1110.251 -518.163)"/>
        <path id="Path_27" data-name="Path 27" d="M1094.616,631.754a3.36,3.36,0,0,1,.972-2.367,3.3,3.3,0,0,1,2.346-.981h17.837c.014,0,.026,0,.039,0a.93.93,0,0,1,.105.011c.031,0,.061.009.091.016a.938.938,0,0,1,.093.029c.031.011.062.022.092.036a.874.874,0,0,1,.079.044.913.913,0,0,1,.09.059c.01.008.022.013.032.021l15.287,12.367c.014.012.025.026.038.038a.918.918,0,0,1,.072.071.881.881,0,0,1,.062.076c.019.025.036.051.052.077s.033.058.048.088.025.057.036.087a.966.966,0,0,1,.03.1c.008.03.014.06.019.091a.876.876,0,0,1,.01.107c0,.017.005.033.005.051V645.4c0,.109-.007.209-.016.3.007.083.016.163.016.256v13.648a2.806,2.806,0,0,0,0,.648v13.648a3.353,3.353,0,0,1-.972,2.368,3.294,3.294,0,0,1-2.347.981h-30.8a3.3,3.3,0,0,1-2.346-.981,3.36,3.36,0,0,1-.972-2.368V660.26a2.806,2.806,0,0,0,0-.648V645.963c0-.093.009-.173.016-.256-.009-.1-.016-.195-.016-.3Zm20.853-1.306a1.335,1.335,0,0,0-1.03,1.306v10.021a1.344,1.344,0,0,0,.391.951,1.316,1.316,0,0,0,.942.394h12.961a1.317,1.317,0,0,0,.942-.394,1.348,1.348,0,0,0,.317-.529ZM1096.6,645.4a1.379,1.379,0,0,0,.011.162.91.91,0,0,1,0,.239,1.514,1.514,0,0,0-.011.16v13.648a1.434,1.434,0,0,0,.016.191.939.939,0,0,1,0,.268,1.434,1.434,0,0,0-.016.19v13.648a1.345,1.345,0,0,0,.391.951,1.319,1.319,0,0,0,.941.393h30.8a1.32,1.32,0,0,0,.942-.393,1.342,1.342,0,0,0,.39-.951V660.26a1.469,1.469,0,0,0-.016-.19.976.976,0,0,1,0-.268,1.469,1.469,0,0,0,.016-.191V645.963a1.362,1.362,0,0,0-.011-.16.966.966,0,0,1,0-.239,1.4,1.4,0,0,0,.011-.162v-.562a3.266,3.266,0,0,1-1.332.283h-12.961a3.3,3.3,0,0,1-2.347-.981,3.362,3.362,0,0,1-.972-2.368V631.754a3.366,3.366,0,0,1,.281-1.344h-14.8a1.318,1.318,0,0,0-.941.394,1.341,1.341,0,0,0-.391.95Z" transform="translate(-1091.174 -602.286)"/>
        <path id="Path_28" data-name="Path 28" d="M1241.845,822.818a1,1,0,0,1,.993,1v2.688a.993.993,0,1,1-1.987,0V823.82A1,1,0,0,1,1241.845,822.818Z" transform="translate(-1231.99 -756.421)"/>
        <path id="Path_29" data-name="Path 29" d="M1241.845,647.141a1,1,0,0,1,.993,1v30.939a.993.993,0,1,1-1.987,0V648.143A1,1,0,0,1,1241.845,647.141Z" transform="translate(-1231.99 -617.139)"/>
      </g>
    </g>
    <g id="Group_14" data-name="Group 14" transform="translate(1084 498.914)">
      <g id="Group_11-2" data-name="Group 11" transform="translate(0 0)">
        <path id="Path_25-2" data-name="Path 25" d="M1121.565,502.326h-42.711a1,1,0,0,0-1,1V580.3a1,1,0,0,0,1,1h42.711a1,1,0,0,0,1-1V503.328a1,1,0,0,0-1-1Zm-41.709,2h40.706V579.3h-40.706Z" transform="translate(-1077.852 -502.326)"/>
        <path id="Path_26-2" data-name="Path 26" d="M1121.971,542.646H1143.1a3.348,3.348,0,0,0,3.348-3.349h0V525.649a3.349,3.349,0,0,0-3.348-3.348h-21.125a3.348,3.348,0,0,0-3.348,3.348V539.3a3.348,3.348,0,0,0,3.348,3.349Zm-1.344-17a1.345,1.345,0,0,1,1.344-1.344H1143.1a1.344,1.344,0,0,1,1.344,1.344V539.3h0a1.344,1.344,0,0,1-1.344,1.345h-21.125a1.345,1.345,0,0,1-1.344-1.345Z" transform="translate(-1110.176 -518.163)"/>
        <path id="Path_27-2" data-name="Path 27" d="M1132.385,631.754a3.349,3.349,0,0,0-3.348-3.348h-18c-.014,0-.026,0-.039,0a.947.947,0,0,0-.106.011c-.031,0-.061.009-.091.016a.952.952,0,0,0-.094.029c-.031.011-.063.022-.093.036a.886.886,0,0,0-.08.044.923.923,0,0,0-.091.059c-.01.008-.022.013-.033.021l-15.423,12.367c-.014.012-.025.026-.038.038a.926.926,0,0,0-.072.071.865.865,0,0,0-.063.076c-.019.025-.036.051-.053.077s-.034.058-.048.088-.025.057-.036.087a.969.969,0,0,0-.03.1c-.008.03-.014.06-.019.091a.876.876,0,0,0-.01.107c0,.017-.005.033-.005.051V645.4c0,.109.007.209.016.3-.007.083-.016.163-.016.256v13.648a2.788,2.788,0,0,1,0,.648v13.648a3.349,3.349,0,0,0,3.348,3.349h31.073a3.349,3.349,0,0,0,3.348-3.349V660.26a2.788,2.788,0,0,1,0-.648V645.963c0-.093-.009-.173-.016-.256.009-.1.016-.195.016-.3Zm-21.039-1.306a1.339,1.339,0,0,1,1.039,1.306v10.021a1.345,1.345,0,0,1-1.344,1.345h-13.077a1.324,1.324,0,0,1-1.27-.923Zm19.034,14.954a1.357,1.357,0,0,1-.011.162.91.91,0,0,0,0,.239,1.486,1.486,0,0,1,.011.16v13.648a1.418,1.418,0,0,1-.016.191.93.93,0,0,0,0,.268,1.417,1.417,0,0,1,.016.19v13.648a1.344,1.344,0,0,1-1.344,1.345h-31.073a1.343,1.343,0,0,1-1.344-1.345V660.26a1.451,1.451,0,0,1,.016-.19.967.967,0,0,0,0-.268,1.451,1.451,0,0,1-.016-.191V645.963a1.34,1.34,0,0,1,.011-.16.954.954,0,0,0,0-.239,1.379,1.379,0,0,1-.011-.162v-.562a3.321,3.321,0,0,0,1.344.283h13.077a3.348,3.348,0,0,0,3.348-3.349V631.754a3.339,3.339,0,0,0-.283-1.344h14.931a1.345,1.345,0,0,1,1.344,1.344Z" transform="translate(-1091.143 -602.286)"/>
        <path id="Path_28-2" data-name="Path 28" d="M1241.854,822.818a1,1,0,0,0-1,1v2.688a1,1,0,1,0,2,0V823.82A1,1,0,0,0,1241.854,822.818Z" transform="translate(-1207.083 -756.421)"/>
        <path id="Path_29-2" data-name="Path 29" d="M1241.854,647.141a1,1,0,0,0-1,1v30.939a1,1,0,0,0,2,0V648.143A1,1,0,0,0,1241.854,647.141Z" transform="translate(-1207.083 -617.139)"/>
      </g>
    </g>
  </g>
</svg>
