<svg id="Group_12" data-name="Group 12" xmlns="http://www.w3.org/2000/svg" width="65.148" height="79.456" viewBox="0 0 65.148 79.456">
  <path id="Path_30" data-name="Path 30" d="M202.842,234.582H139.71a1.008,1.008,0,0,0-1.008,1.008v77.44a1.008,1.008,0,0,0,1.008,1.008h63.132a1.009,1.009,0,0,0,1.008-1.008V235.59a1.008,1.008,0,0,0-1.008-1.008ZM140.718,236.6h61.115v75.423H140.718Z" transform="translate(-138.702 -234.582)"/>
  <path id="Path_31" data-name="Path 31" d="M158.834,275.025h21.252a3.369,3.369,0,0,0,3.369-3.369v-13.73a3.369,3.369,0,0,0-3.369-3.368H158.834a3.369,3.369,0,0,0-3.369,3.368v13.73a3.369,3.369,0,0,0,3.369,3.369Zm-1.352-17.1a1.352,1.352,0,0,1,1.352-1.352h21.252a1.353,1.353,0,0,1,1.352,1.352v13.73a1.353,1.353,0,0,1-1.352,1.353H158.834a1.352,1.352,0,0,1-1.352-1.353Z" transform="translate(-151.971 -250.394)"/>
  <path id="Path_32" data-name="Path 32" d="M324.848,254.557H303.6a3.369,3.369,0,0,0-3.369,3.368v13.73a3.369,3.369,0,0,0,3.369,3.369h21.252a3.369,3.369,0,0,0,3.369-3.369v-13.73a3.369,3.369,0,0,0-3.369-3.368Zm.956,18.055a1.343,1.343,0,0,1-.956.4H303.6a1.352,1.352,0,0,1-1.352-1.353v-13.73a1.352,1.352,0,0,1,1.352-1.352h21.252a1.353,1.353,0,0,1,1.352,1.352v13.73A1.347,1.347,0,0,1,325.8,272.612Z" transform="translate(-266.562 -250.394)"/>
  <path id="Path_33" data-name="Path 33" d="M210.257,360.662H171.989c-.014,0-.026,0-.039,0a.976.976,0,0,0-.107.011c-.032,0-.062.009-.092.016s-.063.019-.095.03-.063.022-.093.037a1.382,1.382,0,0,0-.172.1c-.01.008-.022.013-.033.021l-15.516,12.442c-.014.012-.025.026-.039.038a.948.948,0,0,0-.073.072.92.92,0,0,0-.063.077.933.933,0,0,0-.053.078.989.989,0,0,0-.049.089c-.013.029-.025.057-.036.087s-.022.064-.03.1-.014.06-.019.091a.848.848,0,0,0-.01.108c0,.017-.005.034-.005.051v3.649c0,.11.007.21.016.306-.007.084-.016.164-.016.258v13.731a2.783,2.783,0,0,1,0,.652v13.73a3.369,3.369,0,0,0,3.369,3.369h51.424a3.369,3.369,0,0,0,3.369-3.369v-13.73a2.783,2.783,0,0,1,0-.652V378.325c0-.094-.009-.174-.017-.258.009-.1.017-.2.017-.306v-13.73a3.369,3.369,0,0,0-3.369-3.369ZM172.3,362.716a1.347,1.347,0,0,1,1.045,1.314v10.081a1.353,1.353,0,0,1-1.352,1.353H158.834a1.342,1.342,0,0,1-.956-.4,1.357,1.357,0,0,1-.322-.532Zm39.313,15.045a1.35,1.35,0,0,1-.011.163.928.928,0,0,0,0,.24,1.452,1.452,0,0,1,.011.161v13.731a1.452,1.452,0,0,1-.016.192.928.928,0,0,0,0,.27,1.45,1.45,0,0,1,.016.191v13.73a1.353,1.353,0,0,1-1.352,1.353H158.834a1.351,1.351,0,0,1-1.352-1.353v-13.73a1.45,1.45,0,0,1,.016-.191.99.99,0,0,0,0-.27,1.451,1.451,0,0,1-.016-.192V378.325a1.316,1.316,0,0,1,.011-.161.987.987,0,0,0,0-.24,1.352,1.352,0,0,1-.011-.163V377.2a3.34,3.34,0,0,0,1.352.285h13.156a3.368,3.368,0,0,0,3.369-3.369V364.031a3.366,3.366,0,0,0-.285-1.352h35.184a1.353,1.353,0,0,1,1.352,1.352Z" transform="translate(-151.971 -334.384)"/>
  <path id="Path_34" data-name="Path 34" d="M399.455,555.074a1.008,1.008,0,0,0-1.008,1.008v2.7a1.008,1.008,0,1,0,2.016,0v-2.7A1.008,1.008,0,0,0,399.455,555.074Z" transform="translate(-344.31 -488.277)"/>
  <path id="Path_35" data-name="Path 35" d="M399.455,379.4a1.008,1.008,0,0,0-1.008,1.008v31.126a1.008,1.008,0,1,0,2.016,0V380.405A1.008,1.008,0,0,0,399.455,379.4Z" transform="translate(-344.31 -349.214)"/>
</svg>
