<svg xmlns="http://www.w3.org/2000/svg" xmlns:xlink="http://www.w3.org/1999/xlink" width="142" height="137.06" viewBox="0 0 142 137.06">
  <defs>
    <clipPath id="clip-path">
      <rect id="Rectangle_28" data-name="Rectangle 28" width="142" height="81" transform="translate(-0.484 0.147)" fill="#fff" stroke="#707070" stroke-width="1"/>
    </clipPath>
  </defs>
  <g id="Group_341" data-name="Group 341" transform="translate(6998 -654)">
    <g id="Group_5" data-name="Group 5" transform="translate(-6997.516 653.854)">
      <g id="Mask_Group_3" data-name="Mask Group 3" transform="translate(0)" clip-path="url(#clip-path)">
        <g id="noun_Bath_1744486" transform="translate(16.561 24.871)">
          <path id="Path_11" data-name="Path 11" d="M115.423,66.473h-.211V26.626A16.653,16.653,0,0,0,98.567,10H84.549a1.388,1.388,0,0,0-1.387,1.387v4.73a13.489,13.489,0,0,0-12.082,13.4V30.5a1.387,1.387,0,0,0,1.387,1.387H96.631A1.387,1.387,0,0,0,98.018,30.5v-.982a13.489,13.489,0,0,0-12.082-13.4V12.775H98.567a13.876,13.876,0,0,1,13.87,13.85V66.473H93.769V62.758a1.387,1.387,0,1,0-2.775,0v3.715H85.936V62.758a1.387,1.387,0,1,0-2.775,0v3.715H78.1V62.758a1.387,1.387,0,1,0-2.775,0v3.715H15.664a5.679,5.679,0,0,0-5.672,5.672v.348a5.678,5.678,0,0,0,5.664,5.671l5.6,22.442a12.808,12.808,0,0,0,7.273,9.572l-5.266,8.711a1.388,1.388,0,0,0,2.375,1.436l5.594-9.254a13,13,0,0,0,2.722.3h62.9a13.009,13.009,0,0,0,2.934-.345l5.622,9.3a1.388,1.388,0,0,0,2.375-1.436l-5.316-8.8a12.694,12.694,0,0,0,7.06-9.378l5.62-22.551h.275a5.679,5.679,0,0,0,5.672-5.672v-.348A5.679,5.679,0,0,0,115.423,66.473ZM95.236,29.111H73.862a10.695,10.695,0,0,1,21.374,0Zm11.577,71.042a10.056,10.056,0,0,1-9.96,8.441h-62.9a10.094,10.094,0,0,1-9.983-8.551L18.515,78.164h93.774ZM118.32,72.493a2.9,2.9,0,0,1-2.9,2.9H15.664a2.9,2.9,0,0,1-2.9-2.9v-.348a2.9,2.9,0,0,1,2.9-2.9h99.759a2.9,2.9,0,0,1,2.9,2.9v.348Z" transform="translate(-9.992 -10)"/>
          <path id="Path_12" data-name="Path 12" d="M69.762,36.624a1.387,1.387,0,0,0,1.387-1.387V30.762a1.387,1.387,0,1,0-2.775,0v4.474A1.387,1.387,0,0,0,69.762,36.624Z" transform="translate(12.628 -2.494)"/>
          <path id="Path_13" data-name="Path 13" d="M68.375,44.062a1.387,1.387,0,1,0,2.775,0V39.588a1.387,1.387,0,1,0-2.775,0Z" transform="translate(12.628 0.926)"/>
          <path id="Path_14" data-name="Path 14" d="M64.116,36.624A1.387,1.387,0,0,0,65.5,35.236V30.762a1.387,1.387,0,1,0-2.775,0v4.474A1.387,1.387,0,0,0,64.116,36.624Z" transform="translate(10.44 -2.494)"/>
          <path id="Path_15" data-name="Path 15" d="M62.729,44.062a1.387,1.387,0,1,0,2.775,0V39.588a1.387,1.387,0,1,0-2.775,0Z" transform="translate(10.44 0.926)"/>
          <path id="Path_16" data-name="Path 16" d="M58.471,36.624a1.387,1.387,0,0,0,1.387-1.387V30.762a1.387,1.387,0,1,0-2.775,0v4.474A1.387,1.387,0,0,0,58.471,36.624Z" transform="translate(8.253 -2.494)"/>
          <path id="Path_17" data-name="Path 17" d="M57.084,44.062a1.387,1.387,0,1,0,2.775,0V39.588a1.387,1.387,0,0,0-2.775,0Z" transform="translate(8.253 0.926)"/>
        </g>
      </g>
      <line id="Line_9" data-name="Line 9" y2="55.959" transform="translate(120.374 79.897)" fill="none" stroke="#000" stroke-linecap="round" stroke-width="2.7"/>
    </g>
    <rect id="Rectangle_31" data-name="Rectangle 31" width="51" height="20" transform="translate(-6938 728)" fill="#f8f8f8"/>
  </g>
</svg>
