<svg xmlns="http://www.w3.org/2000/svg" width="259.634" height="584.24" viewBox="0 0 259.634 584.24">
  <g id="Group_410" data-name="Group 410" transform="translate(-605.918 -353.932)">
    <rect id="Rectangle_685" data-name="Rectangle 685" width="188" height="7" transform="translate(626.168 403.922)" fill="#fff"/>
    <g id="Group_397" data-name="Group 397">
      <g id="_-_HOTEL_-_" data-name=" - HOTEL - " style="isolation: isolate">
        <g id="Group_415" data-name="Group 415" style="isolation: isolate">
          <path id="Path_1839" data-name="Path 1839" d="M667.643,364.747v2.694h-14v-2.694Z"/>
          <path id="Path_1840" data-name="Path 1840" d="M702.187,354.247v24.675h-3.219v-11.41H686.437v11.41h-3.184V354.247h3.184v10.675h12.531V354.247Z"/>
          <path id="Path_1841" data-name="Path 1841" d="M725.131,355.542a11.465,11.465,0,0,1,4.322,4.5,14.324,14.324,0,0,1,0,13.056,11.465,11.465,0,0,1-4.322,4.5,12,12,0,0,1-6.178,1.61,12.185,12.185,0,0,1-6.213-1.61,11.38,11.38,0,0,1-4.357-4.5,14.316,14.316,0,0,1,0-13.056,11.38,11.38,0,0,1,4.357-4.5,12.185,12.185,0,0,1,6.213-1.61A12,12,0,0,1,725.131,355.542Zm-10.746,2.537a8.124,8.124,0,0,0-3.15,3.36,12.092,12.092,0,0,0,0,10.238,8.111,8.111,0,0,0,3.15,3.378,8.912,8.912,0,0,0,4.568,1.172,8.738,8.738,0,0,0,4.532-1.19,8.239,8.239,0,0,0,3.15-3.378,12.042,12.042,0,0,0,0-10.22,8.13,8.13,0,0,0-3.15-3.36,9.418,9.418,0,0,0-9.1,0Z"/>
          <path id="Path_1842" data-name="Path 1842" d="M750.8,354.247v2.59h-6.965v22.085h-3.185V356.837h-6.965v-2.59Z"/>
          <path id="Path_1843" data-name="Path 1843" d="M757.486,356.837v8.434h9.381v2.451h-9.381v8.61h10.43v2.59H754.3V354.247h13.614v2.59Z"/>
          <path id="Path_1844" data-name="Path 1844" d="M775.547,376.437h8.75v2.485H772.361V354.247h3.186Z"/>
          <path id="Path_1845" data-name="Path 1845" d="M807.816,364.747v2.694h-14v-2.694Z"/>
        </g>
      </g>
    </g>
    <g id="Group_408" data-name="Group 408">
      <rect id="Rectangle_686" data-name="Rectangle 686" width="204" height="514" transform="translate(630.168 413.922)" fill="none" stroke="#000" stroke-miterlimit="10" stroke-width="2.5"/>
      <g id="Group_406" data-name="Group 406">
        <g id="Group_398" data-name="Group 398">
          <path id="Path_1821" data-name="Path 1821" d="M793.155,820.839H751.963V763.421a32.044,32.044,0,0,1,41.192,0Z" fill="none" stroke="#000" stroke-miterlimit="10" stroke-width="2.5"/>
          <path id="Path_1822" data-name="Path 1822" d="M788.786,817.092H756.332V766.3c1.611-1.512,7.759-5.194,16.227-5.379,9.08-.2,14.7,3.947,16.227,5.379Z" fill="none" stroke="#000" stroke-miterlimit="10" stroke-width="2.5"/>
          <line id="Line_4289" data-name="Line 4289" y2="56.17" transform="translate(772.559 760.921)" fill="none" stroke="#000" stroke-miterlimit="10" stroke-width="2.5"/>
          <line id="Line_4290" data-name="Line 4290" x2="32.454" transform="translate(756.332 784.638)" fill="none" stroke="#000" stroke-miterlimit="10" stroke-width="2.5"/>
          <rect id="Rectangle_687" data-name="Rectangle 687" width="49.929" height="23.716" transform="translate(747.594 799.617)" fill="#fff" stroke="#000" stroke-miterlimit="10" stroke-width="2.5"/>
          <line id="Line_4291" data-name="Line 4291" y2="24" transform="translate(752.168 798.922)" fill="none" stroke="#000" stroke-miterlimit="10" stroke-width="2.5"/>
          <line id="Line_4292" data-name="Line 4292" y2="23.716" transform="translate(756.54 799.617)" fill="none" stroke="#000" stroke-miterlimit="10" stroke-width="2.5"/>
          <line id="Line_4293" data-name="Line 4293" y2="23.716" transform="translate(761.117 799.617)" fill="none" stroke="#000" stroke-miterlimit="10" stroke-width="2.5"/>
          <line id="Line_4294" data-name="Line 4294" y2="24" transform="translate(765.168 798.922)" fill="none" stroke="#000" stroke-miterlimit="10" stroke-width="2.5"/>
          <line id="Line_4295" data-name="Line 4295" y2="24" transform="translate(793.168 798.922)" fill="none" stroke="#000" stroke-miterlimit="10" stroke-width="2.5"/>
          <line id="Line_4296" data-name="Line 4296" y2="23.716" transform="translate(788.578 799.617)" fill="none" stroke="#000" stroke-miterlimit="10" stroke-width="2.5"/>
          <line id="Line_4297" data-name="Line 4297" y2="23.716" transform="translate(784.001 799.617)" fill="none" stroke="#000" stroke-miterlimit="10" stroke-width="2.5"/>
          <line id="Line_4298" data-name="Line 4298" y2="24" transform="translate(779.168 798.922)" fill="none" stroke="#000" stroke-miterlimit="10" stroke-width="2.5"/>
          <line id="Line_4299" data-name="Line 4299" y2="23.716" transform="translate(774.847 799.617)" fill="none" stroke="#000" stroke-miterlimit="10" stroke-width="2.5"/>
          <line id="Line_4300" data-name="Line 4300" y2="23.716" transform="translate(770.27 799.617)" fill="none" stroke="#000" stroke-miterlimit="10" stroke-width="2.5"/>
        </g>
        <g id="Group_399" data-name="Group 399">
          <path id="Path_1823" data-name="Path 1823" d="M793.155,720.98H751.963V663.562a32.044,32.044,0,0,1,41.192,0Z" fill="none" stroke="#000" stroke-miterlimit="10" stroke-width="2.5"/>
          <path id="Path_1824" data-name="Path 1824" d="M788.786,717.233H756.332V666.441c1.611-1.512,7.759-5.194,16.227-5.379,9.08-.2,14.7,3.947,16.227,5.379Z" fill="none" stroke="#000" stroke-miterlimit="10" stroke-width="2.5"/>
          <line id="Line_4301" data-name="Line 4301" y2="56.17" transform="translate(772.559 661.062)" fill="none" stroke="#000" stroke-miterlimit="10" stroke-width="2.5"/>
          <line id="Line_4302" data-name="Line 4302" x2="32.454" transform="translate(756.332 684.779)" fill="none" stroke="#000" stroke-miterlimit="10" stroke-width="2.5"/>
          <rect id="Rectangle_688" data-name="Rectangle 688" width="49.929" height="23.716" transform="translate(747.594 699.758)" fill="#fff" stroke="#000" stroke-miterlimit="10" stroke-width="2.5"/>
          <line id="Line_4303" data-name="Line 4303" y2="24" transform="translate(752.168 698.922)" fill="none" stroke="#000" stroke-miterlimit="10" stroke-width="2.5"/>
          <line id="Line_4304" data-name="Line 4304" y2="23.716" transform="translate(756.54 699.758)" fill="none" stroke="#000" stroke-miterlimit="10" stroke-width="2.5"/>
          <line id="Line_4305" data-name="Line 4305" y2="23.716" transform="translate(761.117 699.758)" fill="none" stroke="#000" stroke-miterlimit="10" stroke-width="2.5"/>
          <line id="Line_4306" data-name="Line 4306" y2="24" transform="translate(765.168 698.922)" fill="none" stroke="#000" stroke-miterlimit="10" stroke-width="2.5"/>
          <line id="Line_4307" data-name="Line 4307" y2="24" transform="translate(793.168 698.922)" fill="none" stroke="#000" stroke-miterlimit="10" stroke-width="2.5"/>
          <line id="Line_4308" data-name="Line 4308" y2="23.716" transform="translate(788.578 699.758)" fill="none" stroke="#000" stroke-miterlimit="10" stroke-width="2.5"/>
          <line id="Line_4309" data-name="Line 4309" y2="23.716" transform="translate(784.001 699.758)" fill="none" stroke="#000" stroke-miterlimit="10" stroke-width="2.5"/>
          <line id="Line_4310" data-name="Line 4310" y2="24" transform="translate(779.168 698.922)" fill="none" stroke="#000" stroke-miterlimit="10" stroke-width="2.5"/>
          <line id="Line_4311" data-name="Line 4311" y2="23.716" transform="translate(774.847 699.758)" fill="none" stroke="#000" stroke-miterlimit="10" stroke-width="2.5"/>
          <line id="Line_4312" data-name="Line 4312" y2="23.716" transform="translate(770.27 699.758)" fill="none" stroke="#000" stroke-miterlimit="10" stroke-width="2.5"/>
        </g>
        <g id="Group_400" data-name="Group 400">
          <path id="Path_1825" data-name="Path 1825" d="M793.155,621.122H751.963V563.7a32.045,32.045,0,0,1,41.192,0Z" fill="none" stroke="#000" stroke-miterlimit="10" stroke-width="2.5"/>
          <path id="Path_1826" data-name="Path 1826" d="M788.786,617.375H756.332V566.583c1.611-1.512,7.759-5.194,16.227-5.379,9.08-.2,14.7,3.947,16.227,5.379Z" fill="none" stroke="#000" stroke-miterlimit="10" stroke-width="2.5"/>
          <line id="Line_4313" data-name="Line 4313" y2="56.17" transform="translate(772.559 561.204)" fill="none" stroke="#000" stroke-miterlimit="10" stroke-width="2.5"/>
          <line id="Line_4314" data-name="Line 4314" x2="32.454" transform="translate(756.332 584.921)" fill="none" stroke="#000" stroke-miterlimit="10" stroke-width="2.5"/>
          <rect id="Rectangle_689" data-name="Rectangle 689" width="49.929" height="23.716" transform="translate(747.594 599.9)" fill="#fff" stroke="#000" stroke-miterlimit="10" stroke-width="2.5"/>
          <line id="Line_4315" data-name="Line 4315" y2="24" transform="translate(752.168 599.922)" fill="none" stroke="#000" stroke-miterlimit="10" stroke-width="2.5"/>
          <line id="Line_4316" data-name="Line 4316" y2="23.716" transform="translate(756.54 599.9)" fill="none" stroke="#000" stroke-miterlimit="10" stroke-width="2.5"/>
          <line id="Line_4317" data-name="Line 4317" y2="23.716" transform="translate(761.117 599.9)" fill="none" stroke="#000" stroke-miterlimit="10" stroke-width="2.5"/>
          <line id="Line_4318" data-name="Line 4318" y2="24" transform="translate(765.168 599.922)" fill="none" stroke="#000" stroke-miterlimit="10" stroke-width="2.5"/>
          <line id="Line_4319" data-name="Line 4319" y2="24" transform="translate(793.168 599.922)" fill="none" stroke="#000" stroke-miterlimit="10" stroke-width="2.5"/>
          <line id="Line_4320" data-name="Line 4320" y2="23.716" transform="translate(788.578 599.9)" fill="none" stroke="#000" stroke-miterlimit="10" stroke-width="2.5"/>
          <line id="Line_4321" data-name="Line 4321" y2="23.716" transform="translate(784.001 599.9)" fill="none" stroke="#000" stroke-miterlimit="10" stroke-width="2.5"/>
          <line id="Line_4322" data-name="Line 4322" y2="24" transform="translate(779.168 599.922)" fill="none" stroke="#000" stroke-miterlimit="10" stroke-width="2.5"/>
          <line id="Line_4323" data-name="Line 4323" y2="23.716" transform="translate(774.847 599.9)" fill="none" stroke="#000" stroke-miterlimit="10" stroke-width="2.5"/>
          <line id="Line_4324" data-name="Line 4324" y2="23.716" transform="translate(770.27 599.9)" fill="none" stroke="#000" stroke-miterlimit="10" stroke-width="2.5"/>
        </g>
        <g id="Group_401" data-name="Group 401">
          <path id="Path_1827" data-name="Path 1827" d="M793.155,521.263H751.963V463.845a32.044,32.044,0,0,1,41.192,0Z" fill="none" stroke="#000" stroke-miterlimit="10" stroke-width="2.5"/>
          <path id="Path_1828" data-name="Path 1828" d="M788.786,517.516H756.332V466.724c1.611-1.512,7.759-5.194,16.227-5.379,9.08-.2,14.7,3.947,16.227,5.379Z" fill="none" stroke="#000" stroke-miterlimit="10" stroke-width="2.5"/>
          <line id="Line_4325" data-name="Line 4325" y2="56.17" transform="translate(772.559 461.345)" fill="none" stroke="#000" stroke-miterlimit="10" stroke-width="2.5"/>
          <line id="Line_4326" data-name="Line 4326" x2="32.454" transform="translate(756.332 485.062)" fill="none" stroke="#000" stroke-miterlimit="10" stroke-width="2.5"/>
          <rect id="Rectangle_690" data-name="Rectangle 690" width="49.929" height="23.716" transform="translate(747.594 500.041)" fill="#fff" stroke="#000" stroke-miterlimit="10" stroke-width="2.5"/>
          <line id="Line_4327" data-name="Line 4327" y2="24" transform="translate(752.168 499.922)" fill="none" stroke="#000" stroke-miterlimit="10" stroke-width="2.5"/>
          <line id="Line_4328" data-name="Line 4328" y2="23.716" transform="translate(756.54 500.041)" fill="none" stroke="#000" stroke-miterlimit="10" stroke-width="2.5"/>
          <line id="Line_4329" data-name="Line 4329" y2="23.716" transform="translate(761.117 500.041)" fill="none" stroke="#000" stroke-miterlimit="10" stroke-width="2.5"/>
          <line id="Line_4330" data-name="Line 4330" y2="24" transform="translate(765.168 499.922)" fill="none" stroke="#000" stroke-miterlimit="10" stroke-width="2.5"/>
          <line id="Line_4331" data-name="Line 4331" y2="24" transform="translate(793.168 499.922)" fill="none" stroke="#000" stroke-miterlimit="10" stroke-width="2.5"/>
          <line id="Line_4332" data-name="Line 4332" y2="23.716" transform="translate(788.578 500.041)" fill="none" stroke="#000" stroke-miterlimit="10" stroke-width="2.5"/>
          <line id="Line_4333" data-name="Line 4333" y2="23.716" transform="translate(784.001 500.041)" fill="none" stroke="#000" stroke-miterlimit="10" stroke-width="2.5"/>
          <line id="Line_4334" data-name="Line 4334" y2="24" transform="translate(779.168 499.922)" fill="none" stroke="#000" stroke-miterlimit="10" stroke-width="2.5"/>
          <line id="Line_4335" data-name="Line 4335" y2="23.716" transform="translate(774.847 500.041)" fill="none" stroke="#000" stroke-miterlimit="10" stroke-width="2.5"/>
          <line id="Line_4336" data-name="Line 4336" y2="23.716" transform="translate(770.27 500.041)" fill="none" stroke="#000" stroke-miterlimit="10" stroke-width="2.5"/>
        </g>
        <g id="Group_402" data-name="Group 402">
          <path id="Path_1829" data-name="Path 1829" d="M710.772,820.839H669.58V763.421a32.044,32.044,0,0,1,41.192,0Z" fill="none" stroke="#000" stroke-miterlimit="10" stroke-width="2.5"/>
          <path id="Path_1830" data-name="Path 1830" d="M706.4,817.092H673.949V766.3c1.611-1.512,7.759-5.194,16.227-5.379,9.08-.2,14.7,3.947,16.227,5.379Z" fill="none" stroke="#000" stroke-miterlimit="10" stroke-width="2.5"/>
          <line id="Line_4337" data-name="Line 4337" y2="56.17" transform="translate(690.176 760.921)" fill="none" stroke="#000" stroke-miterlimit="10" stroke-width="2.5"/>
          <line id="Line_4338" data-name="Line 4338" x2="32.454" transform="translate(673.949 784.638)" fill="none" stroke="#000" stroke-miterlimit="10" stroke-width="2.5"/>
          <rect id="Rectangle_691" data-name="Rectangle 691" width="49.929" height="23.716" transform="translate(665.211 799.617)" fill="#fff" stroke="#000" stroke-miterlimit="10" stroke-width="2.5"/>
          <line id="Line_4339" data-name="Line 4339" y2="24" transform="translate(669.168 798.922)" fill="none" stroke="#000" stroke-miterlimit="10" stroke-width="2.5"/>
          <line id="Line_4340" data-name="Line 4340" y2="23.716" transform="translate(674.157 799.617)" fill="none" stroke="#000" stroke-miterlimit="10" stroke-width="2.5"/>
          <line id="Line_4341" data-name="Line 4341" y2="23.716" transform="translate(678.734 799.617)" fill="none" stroke="#000" stroke-miterlimit="10" stroke-width="2.5"/>
          <line id="Line_4342" data-name="Line 4342" y2="24" transform="translate(683.168 798.922)" fill="none" stroke="#000" stroke-miterlimit="10" stroke-width="2.5"/>
          <line id="Line_4343" data-name="Line 4343" y2="24" transform="translate(710.168 798.922)" fill="none" stroke="#000" stroke-miterlimit="10" stroke-width="2.5"/>
          <line id="Line_4344" data-name="Line 4344" y2="23.716" transform="translate(706.195 799.617)" fill="none" stroke="#000" stroke-miterlimit="10" stroke-width="2.5"/>
          <line id="Line_4345" data-name="Line 4345" y2="23.716" transform="translate(701.618 799.617)" fill="none" stroke="#000" stroke-miterlimit="10" stroke-width="2.5"/>
          <line id="Line_4346" data-name="Line 4346" y2="24" transform="translate(697.168 798.922)" fill="none" stroke="#000" stroke-miterlimit="10" stroke-width="2.5"/>
          <line id="Line_4347" data-name="Line 4347" y2="23.716" transform="translate(692.464 799.617)" fill="none" stroke="#000" stroke-miterlimit="10" stroke-width="2.5"/>
          <line id="Line_4348" data-name="Line 4348" y2="23.716" transform="translate(687.887 799.617)" fill="none" stroke="#000" stroke-miterlimit="10" stroke-width="2.5"/>
        </g>
        <g id="Group_403" data-name="Group 403">
          <path id="Path_1831" data-name="Path 1831" d="M710.772,720.98H669.58V663.562a32.044,32.044,0,0,1,41.192,0Z" fill="none" stroke="#000" stroke-miterlimit="10" stroke-width="2.5"/>
          <path id="Path_1832" data-name="Path 1832" d="M706.4,717.233H673.949V666.441c1.611-1.512,7.759-5.194,16.227-5.379,9.08-.2,14.7,3.947,16.227,5.379Z" fill="none" stroke="#000" stroke-miterlimit="10" stroke-width="2.5"/>
          <line id="Line_4349" data-name="Line 4349" y2="56.17" transform="translate(690.176 661.062)" fill="none" stroke="#000" stroke-miterlimit="10" stroke-width="2.5"/>
          <line id="Line_4350" data-name="Line 4350" x2="32.454" transform="translate(673.949 684.779)" fill="none" stroke="#000" stroke-miterlimit="10" stroke-width="2.5"/>
          <rect id="Rectangle_692" data-name="Rectangle 692" width="49.929" height="23.716" transform="translate(665.211 699.758)" fill="#fff" stroke="#000" stroke-miterlimit="10" stroke-width="2.5"/>
          <line id="Line_4351" data-name="Line 4351" y2="24" transform="translate(669.168 698.922)" fill="none" stroke="#000" stroke-miterlimit="10" stroke-width="2.5"/>
          <line id="Line_4352" data-name="Line 4352" y2="23.716" transform="translate(674.157 699.758)" fill="none" stroke="#000" stroke-miterlimit="10" stroke-width="2.5"/>
          <line id="Line_4353" data-name="Line 4353" y2="23.716" transform="translate(678.734 699.758)" fill="none" stroke="#000" stroke-miterlimit="10" stroke-width="2.5"/>
          <line id="Line_4354" data-name="Line 4354" y2="24" transform="translate(683.168 698.922)" fill="none" stroke="#000" stroke-miterlimit="10" stroke-width="2.5"/>
          <line id="Line_4355" data-name="Line 4355" y2="24" transform="translate(710.168 698.922)" fill="none" stroke="#000" stroke-miterlimit="10" stroke-width="2.5"/>
          <line id="Line_4356" data-name="Line 4356" y2="23.716" transform="translate(706.195 699.758)" fill="none" stroke="#000" stroke-miterlimit="10" stroke-width="2.5"/>
          <line id="Line_4357" data-name="Line 4357" y2="23.716" transform="translate(701.618 699.758)" fill="none" stroke="#000" stroke-miterlimit="10" stroke-width="2.5"/>
          <line id="Line_4358" data-name="Line 4358" y2="24" transform="translate(697.168 698.922)" fill="none" stroke="#000" stroke-miterlimit="10" stroke-width="2.5"/>
          <line id="Line_4359" data-name="Line 4359" y2="23.716" transform="translate(692.464 699.758)" fill="none" stroke="#000" stroke-miterlimit="10" stroke-width="2.5"/>
          <line id="Line_4360" data-name="Line 4360" y2="23.716" transform="translate(687.887 699.758)" fill="none" stroke="#000" stroke-miterlimit="10" stroke-width="2.5"/>
        </g>
        <g id="Group_404" data-name="Group 404">
          <path id="Path_1833" data-name="Path 1833" d="M710.772,621.122H669.58V563.7a32.044,32.044,0,0,1,41.192,0Z" fill="none" stroke="#000" stroke-miterlimit="10" stroke-width="2.5"/>
          <path id="Path_1834" data-name="Path 1834" d="M706.4,617.375H673.949V566.583c1.611-1.512,7.759-5.194,16.227-5.379,9.08-.2,14.7,3.947,16.227,5.379Z" fill="none" stroke="#000" stroke-miterlimit="10" stroke-width="2.5"/>
          <line id="Line_4361" data-name="Line 4361" y2="56.17" transform="translate(690.176 561.204)" fill="none" stroke="#000" stroke-miterlimit="10" stroke-width="2.5"/>
          <line id="Line_4362" data-name="Line 4362" x2="32.454" transform="translate(673.949 584.921)" fill="none" stroke="#000" stroke-miterlimit="10" stroke-width="2.5"/>
          <rect id="Rectangle_693" data-name="Rectangle 693" width="49.929" height="23.716" transform="translate(665.211 599.9)" fill="#fff" stroke="#000" stroke-miterlimit="10" stroke-width="2.5"/>
          <line id="Line_4363" data-name="Line 4363" y2="24" transform="translate(669.168 599.922)" fill="none" stroke="#000" stroke-miterlimit="10" stroke-width="2.5"/>
          <line id="Line_4364" data-name="Line 4364" y2="23.716" transform="translate(674.157 599.9)" fill="none" stroke="#000" stroke-miterlimit="10" stroke-width="2.5"/>
          <line id="Line_4365" data-name="Line 4365" y2="23.716" transform="translate(678.734 599.9)" fill="none" stroke="#000" stroke-miterlimit="10" stroke-width="2.5"/>
          <line id="Line_4366" data-name="Line 4366" y2="24" transform="translate(683.168 599.922)" fill="none" stroke="#000" stroke-miterlimit="10" stroke-width="2.5"/>
          <line id="Line_4367" data-name="Line 4367" y2="24" transform="translate(710.168 599.922)" fill="none" stroke="#000" stroke-miterlimit="10" stroke-width="2.5"/>
          <line id="Line_4368" data-name="Line 4368" y2="23.716" transform="translate(706.195 599.9)" fill="none" stroke="#000" stroke-miterlimit="10" stroke-width="2.5"/>
          <line id="Line_4369" data-name="Line 4369" y2="23.716" transform="translate(701.618 599.9)" fill="none" stroke="#000" stroke-miterlimit="10" stroke-width="2.5"/>
          <line id="Line_4370" data-name="Line 4370" y2="24" transform="translate(697.168 599.922)" fill="none" stroke="#000" stroke-miterlimit="10" stroke-width="2.5"/>
          <line id="Line_4371" data-name="Line 4371" y2="23.716" transform="translate(692.464 599.9)" fill="none" stroke="#000" stroke-miterlimit="10" stroke-width="2.5"/>
          <line id="Line_4372" data-name="Line 4372" y2="23.716" transform="translate(687.887 599.9)" fill="none" stroke="#000" stroke-miterlimit="10" stroke-width="2.5"/>
        </g>
        <g id="Group_405" data-name="Group 405">
          <path id="Path_1835" data-name="Path 1835" d="M710.772,521.263H669.58V463.845a32.044,32.044,0,0,1,41.192,0Z" fill="none" stroke="#000" stroke-miterlimit="10" stroke-width="2.5"/>
          <path id="Path_1836" data-name="Path 1836" d="M706.4,517.516H673.949V466.724c1.611-1.512,7.759-5.194,16.227-5.379,9.08-.2,14.7,3.947,16.227,5.379Z" fill="none" stroke="#000" stroke-miterlimit="10" stroke-width="2.5"/>
          <line id="Line_4373" data-name="Line 4373" y2="56.17" transform="translate(690.176 461.345)" fill="none" stroke="#000" stroke-miterlimit="10" stroke-width="2.5"/>
          <line id="Line_4374" data-name="Line 4374" x2="32.454" transform="translate(673.949 485.062)" fill="none" stroke="#000" stroke-miterlimit="10" stroke-width="2.5"/>
          <rect id="Rectangle_694" data-name="Rectangle 694" width="49.929" height="23.716" transform="translate(665.211 500.041)" fill="#fff" stroke="#000" stroke-miterlimit="10" stroke-width="2.5"/>
          <line id="Line_4375" data-name="Line 4375" y2="24" transform="translate(669.168 499.922)" fill="none" stroke="#000" stroke-miterlimit="10" stroke-width="2.5"/>
          <line id="Line_4376" data-name="Line 4376" y2="23.716" transform="translate(674.157 500.041)" fill="none" stroke="#000" stroke-miterlimit="10" stroke-width="2.5"/>
          <line id="Line_4377" data-name="Line 4377" y2="23.716" transform="translate(678.734 500.041)" fill="none" stroke="#000" stroke-miterlimit="10" stroke-width="2.5"/>
          <line id="Line_4378" data-name="Line 4378" y2="24" transform="translate(683.168 499.922)" fill="none" stroke="#000" stroke-miterlimit="10" stroke-width="2.5"/>
          <line id="Line_4379" data-name="Line 4379" y2="24" transform="translate(710.168 499.922)" fill="none" stroke="#000" stroke-miterlimit="10" stroke-width="2.5"/>
          <line id="Line_4380" data-name="Line 4380" y2="23.716" transform="translate(706.195 500.041)" fill="none" stroke="#000" stroke-miterlimit="10" stroke-width="2.5"/>
          <line id="Line_4381" data-name="Line 4381" y2="23.716" transform="translate(701.618 500.041)" fill="none" stroke="#000" stroke-miterlimit="10" stroke-width="2.5"/>
          <line id="Line_4382" data-name="Line 4382" y2="24" transform="translate(697.168 499.922)" fill="none" stroke="#000" stroke-miterlimit="10" stroke-width="2.5"/>
          <line id="Line_4383" data-name="Line 4383" y2="23.716" transform="translate(692.464 500.041)" fill="none" stroke="#000" stroke-miterlimit="10" stroke-width="2.5"/>
          <line id="Line_4384" data-name="Line 4384" y2="23.716" transform="translate(687.887 500.041)" fill="none" stroke="#000" stroke-miterlimit="10" stroke-width="2.5"/>
        </g>
      </g>
      <rect id="Rectangle_695" data-name="Rectangle 695" width="94" height="72" transform="translate(687.168 855.922)" fill="none" stroke="#000" stroke-miterlimit="10" stroke-width="2.5"/>
      <line id="Line_4385" data-name="Line 4385" y2="72" transform="translate(734.168 855.922)" fill="none" stroke="#000" stroke-miterlimit="10" stroke-width="2.5"/>
      <rect id="Rectangle_696" data-name="Rectangle 696" width="38" height="37" transform="translate(691.168 860.922)" fill="none" stroke="#000" stroke-miterlimit="10" stroke-width="2.5"/>
      <rect id="Rectangle_697" data-name="Rectangle 697" width="38" height="37" transform="translate(738.168 860.922)" fill="none" stroke="#000" stroke-miterlimit="10" stroke-width="2.5"/>
      <rect id="Rectangle_698" data-name="Rectangle 698" width="38" height="20" transform="translate(738.168 903.922)" fill="none" stroke="#000" stroke-miterlimit="10" stroke-width="2.5"/>
      <rect id="Rectangle_699" data-name="Rectangle 699" width="38" height="20" transform="translate(691.168 903.922)" fill="none" stroke="#000" stroke-miterlimit="10" stroke-width="2.5"/>
      <rect id="Rectangle_700" data-name="Rectangle 700" width="7" height="12" transform="translate(630.168 538.922)" fill="none" stroke="#000" stroke-miterlimit="10" stroke-width="2.5"/>
      <rect id="Rectangle_701" data-name="Rectangle 701" width="15" height="13" transform="translate(630.168 494.922)" fill="none" stroke="#000" stroke-miterlimit="10" stroke-width="2.5"/>
      <rect id="Rectangle_702" data-name="Rectangle 702" width="7" height="13" transform="translate(630.168 626.922)" fill="none" stroke="#000" stroke-miterlimit="10" stroke-width="2.5"/>
      <rect id="Rectangle_703" data-name="Rectangle 703" width="15" height="13" transform="translate(630.168 582.922)" fill="none" stroke="#000" stroke-miterlimit="10" stroke-width="2.5"/>
      <rect id="Rectangle_704" data-name="Rectangle 704" width="7" height="13" transform="translate(630.168 713.922)" fill="none" stroke="#000" stroke-miterlimit="10" stroke-width="2.5"/>
      <rect id="Rectangle_705" data-name="Rectangle 705" width="15" height="12" transform="translate(630.168 670.922)" fill="none" stroke="#000" stroke-miterlimit="10" stroke-width="2.5"/>
      <rect id="Rectangle_706" data-name="Rectangle 706" width="7" height="13" transform="translate(630.168 798.922)" fill="none" stroke="#000" stroke-miterlimit="10" stroke-width="2.5"/>
      <rect id="Rectangle_707" data-name="Rectangle 707" width="15" height="12" transform="translate(630.168 755.922)" fill="none" stroke="#000" stroke-miterlimit="10" stroke-width="2.5"/>
      <rect id="Rectangle_708" data-name="Rectangle 708" width="15" height="13" transform="translate(630.168 853.922)" fill="none" stroke="#000" stroke-miterlimit="10" stroke-width="2.5"/>
      <rect id="Rectangle_709" data-name="Rectangle 709" width="23" height="13" transform="translate(630.168 866.922)" fill="none" stroke="#000" stroke-miterlimit="10" stroke-width="2.5"/>
      <rect id="Rectangle_710" data-name="Rectangle 710" width="15" height="13" transform="translate(819.168 852.922)" fill="none" stroke="#000" stroke-miterlimit="10" stroke-width="2.5"/>
      <rect id="Rectangle_711" data-name="Rectangle 711" width="24" height="12" transform="translate(810.168 865.922)" fill="none" stroke="#000" stroke-miterlimit="10" stroke-width="2.5"/>
      <rect id="Rectangle_712" data-name="Rectangle 712" width="8" height="12" transform="translate(826.168 537.922)" fill="none" stroke="#000" stroke-miterlimit="10" stroke-width="2.5"/>
      <rect id="Rectangle_713" data-name="Rectangle 713" width="15" height="13" transform="translate(819.168 493.922)" fill="none" stroke="#000" stroke-miterlimit="10" stroke-width="2.5"/>
      <rect id="Rectangle_714" data-name="Rectangle 714" width="8" height="13" transform="translate(826.168 625.922)" fill="none" stroke="#000" stroke-miterlimit="10" stroke-width="2.5"/>
      <rect id="Rectangle_715" data-name="Rectangle 715" width="15" height="13" transform="translate(819.168 581.922)" fill="none" stroke="#000" stroke-miterlimit="10" stroke-width="2.5"/>
      <rect id="Rectangle_716" data-name="Rectangle 716" width="8" height="13" transform="translate(826.168 712.922)" fill="none" stroke="#000" stroke-miterlimit="10" stroke-width="2.5"/>
      <rect id="Rectangle_717" data-name="Rectangle 717" width="15" height="12" transform="translate(819.168 669.922)" fill="none" stroke="#000" stroke-miterlimit="10" stroke-width="2.5"/>
      <rect id="Rectangle_718" data-name="Rectangle 718" width="8" height="13" transform="translate(826.168 797.922)" fill="none" stroke="#000" stroke-miterlimit="10" stroke-width="2.5"/>
      <rect id="Rectangle_719" data-name="Rectangle 719" width="15" height="12" transform="translate(819.168 754.922)" fill="none" stroke="#000" stroke-miterlimit="10" stroke-width="2.5"/>
      <path id="Rectangle_720" data-name="Rectangle 720" d="M607.168,401.922h249v5a7,7,0,0,1-7,7h-235a7,7,0,0,1-7-7v-5Z" fill="none" stroke="#000" stroke-miterlimit="10" stroke-width="2.5"/>
      <path id="Rectangle_721" data-name="Rectangle 721" d="M856.168,936.922h-249v-2a7,7,0,0,1,7-7h235a7,7,0,0,1,7,7v2Z" fill="none" stroke="#000" stroke-miterlimit="10" stroke-width="2.5"/>
      <line id="Line_4386" data-name="Line 4386" x2="25" transform="translate(678.168 739.922)" fill="none" stroke="#000" stroke-linecap="round" stroke-miterlimit="10" stroke-width="2.5"/>
      <line id="Line_4387" data-name="Line 4387" x2="17" transform="translate(709.168 739.922)" fill="none" stroke="#000" stroke-linecap="round" stroke-miterlimit="10" stroke-width="2.5"/>
      <line id="Line_4388" data-name="Line 4388" x2="61" transform="translate(733.168 739.922)" fill="none" stroke="#000" stroke-linecap="round" stroke-miterlimit="10" stroke-width="2.5"/>
      <line id="Line_4389" data-name="Line 4389" x2="24" transform="translate(675.168 835.922)" fill="none" stroke="#000" stroke-linecap="round" stroke-miterlimit="10" stroke-width="2.5"/>
      <line id="Line_4390" data-name="Line 4390" x2="17" transform="translate(706.168 835.922)" fill="none" stroke="#000" stroke-linecap="round" stroke-miterlimit="10" stroke-width="2.5"/>
      <line id="Line_4391" data-name="Line 4391" x2="61" transform="translate(730.168 835.922)" fill="none" stroke="#000" stroke-linecap="round" stroke-miterlimit="10" stroke-width="2.5"/>
      <line id="Line_4392" data-name="Line 4392" x2="24" transform="translate(675.168 641.922)" fill="none" stroke="#000" stroke-linecap="round" stroke-miterlimit="10" stroke-width="2.5"/>
      <line id="Line_4393" data-name="Line 4393" x2="17" transform="translate(706.168 641.922)" fill="none" stroke="#000" stroke-linecap="round" stroke-miterlimit="10" stroke-width="2.5"/>
      <line id="Line_4394" data-name="Line 4394" x2="61" transform="translate(730.168 641.922)" fill="none" stroke="#000" stroke-linecap="round" stroke-miterlimit="10" stroke-width="2.5"/>
      <line id="Line_4395" data-name="Line 4395" x2="25" transform="translate(655.168 430.922)" fill="none" stroke="#000" stroke-linecap="round" stroke-miterlimit="10" stroke-width="2.5"/>
      <line id="Line_4396" data-name="Line 4396" x2="24" transform="translate(772.168 430.922)" fill="none" stroke="#000" stroke-linecap="round" stroke-miterlimit="10" stroke-width="2.5"/>
      <line id="Line_4397" data-name="Line 4397" x2="18" transform="translate(695.168 538.922)" fill="none" stroke="#000" stroke-linecap="round" stroke-miterlimit="10" stroke-width="2.5"/>
      <line id="Line_4398" data-name="Line 4398" x2="9" transform="translate(804.168 430.922)" fill="none" stroke="#000" stroke-linecap="round" stroke-miterlimit="10" stroke-width="2.5"/>
      <line id="Line_4399" data-name="Line 4399" x2="19" transform="translate(655.168 437.922)" fill="none" stroke="#000" stroke-linecap="round" stroke-miterlimit="10" stroke-width="2.5"/>
      <path id="Rectangle_722" data-name="Rectangle 722" d="M669.076,859.532h15.947V867.1a6.388,6.388,0,0,1-6.388,6.388h-3.171a6.388,6.388,0,0,1-6.388-6.388h0v-7.566Z" fill="#fff" stroke="#000" stroke-miterlimit="10" stroke-width="2.5"/>
      <path id="Rectangle_723" data-name="Rectangle 723" d="M685.521,859.532h15.947V867.1a6.388,6.388,0,0,1-6.388,6.388h-3.171a6.388,6.388,0,0,1-6.388-6.388h0v-7.566Z" fill="#fff" stroke="#000" stroke-miterlimit="10" stroke-width="2.5"/>
      <path id="Rectangle_724" data-name="Rectangle 724" d="M701.967,859.532h15.947V867.1a6.388,6.388,0,0,1-6.388,6.388h-3.171a6.388,6.388,0,0,1-6.388-6.388h0v-7.566Z" fill="#fff" stroke="#000" stroke-miterlimit="10" stroke-width="2.5"/>
      <path id="Rectangle_725" data-name="Rectangle 725" d="M718.412,859.532h15.947V867.1a6.388,6.388,0,0,1-6.388,6.388H724.8a6.388,6.388,0,0,1-6.388-6.388h0v-7.566Z" fill="#fff" stroke="#000" stroke-miterlimit="10" stroke-width="2.5"/>
      <path id="Rectangle_726" data-name="Rectangle 726" d="M734.857,859.532H750.8V867.1a6.388,6.388,0,0,1-6.388,6.388h-3.171a6.388,6.388,0,0,1-6.388-6.388h0v-7.566Z" fill="#fff" stroke="#000" stroke-miterlimit="10" stroke-width="2.5"/>
      <path id="Rectangle_727" data-name="Rectangle 727" d="M751.3,859.532H767.25V867.1a6.388,6.388,0,0,1-6.388,6.388h-3.171A6.388,6.388,0,0,1,751.3,867.1h0v-7.566Z" fill="#fff" stroke="#000" stroke-miterlimit="10" stroke-width="2.5"/>
      <path id="Rectangle_728" data-name="Rectangle 728" d="M767.748,859.532H783.7V867.1a6.388,6.388,0,0,1-6.388,6.388h-3.171a6.388,6.388,0,0,1-6.388-6.388h0v-7.566Z" fill="#fff" stroke="#000" stroke-miterlimit="10" stroke-width="2.5"/>
      <path id="Rectangle_729" data-name="Rectangle 729" d="M784.193,859.532H800.14V867.1a6.388,6.388,0,0,1-6.388,6.388h-3.171a6.388,6.388,0,0,1-6.388-6.388h0v-7.566Z" fill="#fff" stroke="#000" stroke-miterlimit="10" stroke-width="2.5"/>
      <g id="Group_407" data-name="Group 407">
        <path id="Path_1837" data-name="Path 1837" d="M669.076,859.532,685.3,847.05h98.61l16.227,12.482Z" fill="#fff" stroke="#000" stroke-linecap="round" stroke-linejoin="round" stroke-width="2.5"/>
        <line id="Line_4400" data-name="Line 4400" y1="14" x2="11" transform="translate(685.168 846.922)" fill="none" stroke="#000" stroke-linecap="round" stroke-miterlimit="10" stroke-width="2.5"/>
        <line id="Line_4401" data-name="Line 4401" x1="9.458" y1="13.731" transform="translate(774.456 847.05)" fill="none" stroke="#000" stroke-linecap="round" stroke-miterlimit="10" stroke-width="2.5"/>
        <line id="Line_4402" data-name="Line 4402" y1="14" x2="5" transform="translate(702.168 846.922)" fill="none" stroke="#000" stroke-linecap="round" stroke-miterlimit="10" stroke-width="2.5"/>
        <line id="Line_4403" data-name="Line 4403" x1="0.375" y1="13.731" transform="translate(734.857 847.05)" fill="none" stroke="#000" stroke-linecap="round" stroke-miterlimit="10" stroke-width="2.5"/>
        <line id="Line_4404" data-name="Line 4404" x1="5" y1="14" transform="translate(762.168 846.922)" fill="none" stroke="#000" stroke-linecap="round" stroke-miterlimit="10" stroke-width="2.5"/>
        <line id="Line_4405" data-name="Line 4405" x1="2" y1="14" transform="translate(749.168 846.922)" fill="none" stroke="#000" stroke-linecap="round" stroke-miterlimit="10" stroke-width="2.5"/>
        <line id="Line_4406" data-name="Line 4406" y1="13.731" x2="2.596" transform="translate(719.005 847.05)" fill="none" stroke="#000" stroke-linecap="round" stroke-miterlimit="10" stroke-width="2.5"/>
      </g>
      <path id="Path_1838" data-name="Path 1838" d="M865.552,910.709" fill="none" stroke="#000" stroke-linecap="round" stroke-miterlimit="10" stroke-width="2.5"/>
    </g>
  </g>
</svg>
