<svg width="14" height="10" viewBox="0 0 14 10" fill="none" xmlns="http://www.w3.org/2000/svg">
<path d="M0.878577 0.523928C0.988286 0.451612 1.41145 0.249734 1.76879 0.683623L4.18865 4.08243L6.74957 1.70809C6.88435 1.58455 7.06929 1.51826 7.25736 1.53935C7.4423 1.55743 7.61157 1.65084 7.72128 1.79848L11.9686 7.65298L12.1222 5.69445C12.1598 5.19728 12.6456 5.11593 12.8086 5.12798C13.1597 5.1551 13.4261 5.44737 13.3979 5.78786L13.1284 9.23186C13.1033 9.56933 12.7961 9.82544 12.4419 9.79832L8.85911 9.53919C8.50805 9.51509 8.24161 9.2198 8.26982 8.87932C8.2949 8.54185 8.59895 8.28875 8.95628 8.31285L10.9937 8.4605L7.10064 3.09714L4.53345 5.4775C4.39866 5.60405 4.21059 5.66733 4.02565 5.64624C3.83758 5.62816 3.66832 5.53174 3.56174 5.38108L0.712446 1.37965C0.511836 1.09943 0.587065 0.716767 0.878577 0.523928Z" fill="#F20A34"/>
</svg>
