<svg viewBox="0 0 25 19" fill="none" xmlns="http://www.w3.org/2000/svg">
	<path d="M0.693334 18.7656C0.898412 18.9062 1.68943 19.2988 2.3574 18.455L6.88083 11.8456L11.6679 16.4628C11.9199 16.703 12.2656 16.832 12.6172 16.7909C12.9629 16.7558 13.2793 16.5741 13.4844 16.287L21.4238 4.90227L21.7109 8.71086C21.7812 9.67766 22.6894 9.83586 22.9941 9.81243C23.6504 9.75969 24.1484 9.19133 24.0957 8.52922L23.5918 1.83196C23.5449 1.17571 22.9707 0.677659 22.3086 0.730393L15.6113 1.2343C14.9551 1.28117 14.457 1.85539 14.5097 2.5175C14.5566 3.17375 15.125 3.66594 15.7929 3.61907L19.6015 3.33196L12.3242 13.7616L7.52536 9.13274C7.27341 8.88664 6.92185 8.7636 6.57615 8.80461C6.22458 8.83977 5.90818 9.02727 5.70896 9.32024L0.382788 17.1015C0.00778754 17.6464 0.148412 18.3906 0.693334 18.7656Z" fill="#39B945"/>
</svg>
